<svg width="311" height="61" viewBox="0 0 311 61" fill="none" xmlns="http://www.w3.org/2000/svg">
<path d="M13.8161 48.6641C15.6456 48.6641 17.1124 48.1909 18.2164 47.2446C19.352 46.2983 19.9198 44.9892 19.9198 43.3174C19.9198 41.961 19.5728 40.8097 18.8788 39.8634C18.1849 38.9171 17.3174 38.1443 16.2765 37.5449C15.2671 36.9456 13.8792 36.2517 12.1127 35.4631C10.0939 34.5483 8.46945 33.7124 7.23925 32.9554C6.0406 32.1983 5.01543 31.1889 4.16375 29.9272C3.31208 28.6654 2.88624 27.0883 2.88624 25.1956C2.88624 23.5869 3.26476 22.0886 4.02181 20.7007C4.8104 19.2812 5.97751 18.1456 7.52314 17.294C9.06878 16.4423 10.9614 16.0165 13.201 16.0165C15.2513 16.0165 17.0808 16.3161 18.6896 16.9154C20.3298 17.4832 21.5916 18.3034 22.4748 19.3758C23.3896 20.4168 23.8469 21.6154 23.8469 22.9718C23.8469 24.5805 23.358 25.9054 22.3802 26.9463C21.4339 27.9872 20.2352 28.5077 18.7842 28.5077C18.1218 28.5077 17.7906 28.3185 17.7906 27.9399C17.7906 27.8453 17.9168 27.5772 18.1691 27.1356C18.453 26.694 18.6896 26.205 18.8788 25.6688C19.0996 25.101 19.21 24.4228 19.21 23.6342C19.21 22.1517 18.658 20.953 17.554 20.0383C16.45 19.1235 14.999 18.6661 13.201 18.6661C11.3399 18.6661 9.90468 19.2024 8.89529 20.2748C7.8859 21.3158 7.3812 22.5933 7.3812 24.1074C7.3812 25.2745 7.71241 26.2839 8.37482 27.1356C9.03724 27.9872 9.85737 28.697 10.8352 29.2648C11.8131 29.8325 13.1694 30.5107 14.9043 31.2993C16.9862 32.2141 18.6738 33.0815 19.9671 33.9017C21.2919 34.6903 22.4117 35.7627 23.3265 37.1191C24.2412 38.4439 24.6986 40.1 24.6986 42.0872C24.6986 44.8946 23.7523 47.1342 21.8597 48.806C19.9986 50.4778 17.3174 51.3137 13.8161 51.3137C11.545 51.3137 9.52616 50.9983 7.75972 50.3674C5.99328 49.705 4.60536 48.806 3.59597 47.6704C2.61812 46.5033 2.12919 45.1785 2.12919 43.6959C2.12919 42.0872 2.63389 40.7624 3.64328 39.7215C4.68422 38.6805 5.97751 38.16 7.52314 38.16C7.87012 38.16 8.12247 38.2231 8.28019 38.3493C8.43791 38.4439 8.51677 38.5701 8.51677 38.7278C8.51677 38.8225 8.37482 39.0906 8.09093 39.5322C7.80704 39.9423 7.55469 40.4312 7.33388 40.999C7.11308 41.5668 7.00267 42.2449 7.00267 43.0335C7.00267 44.7053 7.63355 46.0617 8.89529 47.1027C10.157 48.1436 11.7973 48.6641 13.8161 48.6641ZM46.7128 40.2419C46.7128 42.7339 47.5014 44.7053 49.0786 46.1563C50.6558 47.6074 52.643 48.3329 55.0403 48.3329C57.4377 48.3329 59.4249 47.6074 61.0021 46.1563C62.5793 44.7053 63.3679 42.7339 63.3679 40.2419V22.9718C63.3679 21.5208 63.1628 20.5114 62.7527 19.9436C62.3427 19.3758 61.5383 18.9185 60.3397 18.5715L59.2514 18.2876L59.8192 16.6789H68.8091L69.4242 17.4359L68.8091 18.2876C68.0205 19.3285 67.4685 20.4326 67.1531 21.5997C66.8376 22.7668 66.6799 24.2966 66.6799 26.1893V40.2419C66.6799 43.9641 65.5444 46.7399 63.2732 48.5694C61.0021 50.399 58.0528 51.3137 54.4252 51.3137C50.7346 51.3137 47.738 50.399 45.4353 48.5694C43.1642 46.7399 42.0286 43.9641 42.0286 40.2419V22.9718C42.0286 21.5208 41.8236 20.5114 41.4135 19.9436C41.0035 19.3758 40.1991 18.9185 39.0004 18.5715L37.9122 18.2876L38.48 16.6789H48.842L49.4571 17.4359L48.842 18.2876C48.0534 19.3285 47.5014 20.4326 47.186 21.5997C46.8706 22.7668 46.7128 24.2966 46.7128 26.1893V40.2419ZM90.4917 41.1409C90.4917 43.0335 90.6495 44.5634 90.9649 45.7305C91.2803 46.8976 91.8324 48.0016 92.6209 49.0426L93.236 49.8943L92.6209 50.6513H83.631L83.0632 49.0426L84.1515 48.7587C85.3501 48.4117 86.1545 47.9543 86.5646 47.3865C86.9746 46.8188 87.1797 45.8094 87.1797 44.3584V22.9718C87.1797 21.5208 86.9746 20.5114 86.5646 19.9436C86.1545 19.3758 85.3501 18.9185 84.1515 18.5715L83.0632 18.2876L83.631 16.6789H91.2488L109.323 43.5067V22.9718C109.323 21.5208 109.118 20.5114 108.708 19.9436C108.298 19.3758 107.494 18.9185 106.295 18.5715L105.207 18.2876L105.775 16.6789H114.765L115.38 17.4359L114.765 18.2876C113.976 19.3285 113.424 20.4326 113.108 21.5997C112.793 22.7668 112.635 24.2966 112.635 26.1893V46.4876C112.635 47.0869 112.683 47.5758 112.777 47.9543C112.872 48.3329 113.045 48.6956 113.298 49.0426L113.913 49.8943L113.298 50.6513H108.519L90.4917 23.9181V41.1409ZM149.887 23.5869C149.571 22.4198 149.224 21.5524 148.846 20.9846C148.499 20.3852 148.01 19.9752 147.379 19.7544C146.748 19.502 145.865 19.3758 144.729 19.3758H140.613C139.761 19.3758 139.114 19.4705 138.673 19.6597C138.263 19.849 137.979 20.196 137.821 20.7007C137.663 21.2054 137.585 21.9624 137.585 22.9718V32.5295H143.12C143.878 32.5295 144.54 32.3718 145.108 32.0564C145.707 31.7094 146.291 31.1416 146.858 30.353L147.237 29.8325L148.183 30.353V38.4439L146.575 39.0117L146.291 37.9235C146.007 36.851 145.502 36.1413 144.777 35.7943C144.083 35.4158 142.868 35.2265 141.133 35.2265H137.585V44.3584C137.585 45.8094 137.79 46.8188 138.2 47.3865C138.61 47.9543 139.414 48.4117 140.613 48.7587L141.701 49.0426L141.133 50.6513H130.771L130.156 49.8943L130.771 49.0426C131.56 48.0016 132.112 46.8976 132.427 45.7305C132.743 44.5634 132.9 43.0335 132.9 41.1409V26.1893C132.9 24.2966 132.743 22.7668 132.427 21.5997C132.112 20.4326 131.56 19.3285 130.771 18.2876L130.156 17.4359L130.771 16.6789H144.777C147.489 16.6789 149.287 16.3477 150.17 15.6852L151.022 15.0701L151.779 15.6852V24.1074L150.17 24.6752L149.887 23.5869ZM230.638 23.0664C231.048 22.4356 231.316 21.9466 231.442 21.5997C231.568 21.2211 231.631 20.8268 231.631 20.4168C231.631 19.9121 231.426 19.2024 231.016 18.2876L230.59 17.4359L231.489 16.6789H240.195L240.763 18.2876L239.675 18.5715C238.886 18.7923 238.208 19.092 237.64 19.4705C237.073 19.8175 236.521 20.3695 235.984 21.1265L227.704 33.0973L236.221 45.1627C237.041 46.3298 237.719 47.2446 238.255 47.907C238.823 48.5694 239.517 49.2318 240.337 49.8943L239.722 50.6513H228.508L227.941 49.0426L229.029 48.7587C230.259 48.4117 230.874 47.7335 230.874 46.7241C230.874 45.904 230.527 44.9735 229.833 43.9325L224.676 36.6933L219.66 44.2637C219.25 44.8946 218.982 45.3993 218.856 45.7778C218.73 46.1248 218.667 46.5033 218.667 46.9134C218.667 47.4181 218.872 48.1278 219.282 49.0426L219.708 49.8943L218.809 50.6513H210.103L209.535 49.0426L210.623 48.7587C211.412 48.5379 212.09 48.254 212.658 47.907C213.226 47.5285 213.778 46.9607 214.314 46.2037L222.783 33.949L214.692 22.4513C213.052 20.1802 211.617 18.5084 210.387 17.4359L211.002 16.6789H222.216L222.783 18.2876L221.695 18.5715C220.465 18.9185 219.85 19.5966 219.85 20.606C219.85 21.4262 220.197 22.3567 220.891 23.3977L225.764 30.353L230.638 23.0664ZM271.693 23.0191C272.071 22.2936 272.26 21.647 272.26 21.0792C272.26 20.4483 272.055 19.9121 271.645 19.4705C271.267 19.0289 270.809 18.7292 270.273 18.5715L269.185 18.2876L269.753 16.6789H278.743L279.358 17.4359L278.648 18.2876C277.544 19.6124 276.424 21.2842 275.289 23.303L267.955 36.3147V44.3584C267.955 45.7778 268.175 46.7872 268.617 47.3865C269.059 47.9859 269.879 48.4433 271.078 48.7587L272.166 49.0426L271.598 50.6513H261.236L260.621 49.8943L261.236 49.0426C262.024 47.9386 262.592 46.8188 262.939 45.6832C263.286 44.5161 263.46 43.002 263.46 41.1409V36.6933L255.889 23.3977C255.038 21.8836 254.281 20.7007 253.618 19.849C252.956 18.9973 252.136 18.193 251.158 17.4359L251.773 16.6789H262.419L262.987 18.2876L261.898 18.5715C261.141 18.7607 260.589 19.0131 260.242 19.3285C259.927 19.644 259.769 20.0856 259.769 20.6534C259.769 21.0003 259.99 21.5524 260.432 22.3094C260.873 23.0349 261.141 23.4765 261.236 23.6342L266.346 32.5768L271.693 23.0191Z" fill="#0ACF83"/>
<path d="M174.03 0.207756C173.367 0.552944 173.133 0.82909 172.635 1.79562C171.213 4.62617 169.736 10.5358 168.797 17.1772C168.548 18.917 168.258 20.2563 167.83 21.6647C167.499 22.7693 167.181 23.8739 167.126 24.1362C167.071 24.3986 166.822 24.8128 166.56 25.0751C166.298 25.3237 166.091 25.6827 166.077 25.8484C166.049 26.3731 166.118 26.8287 166.256 27.091C166.367 27.2982 166.325 27.3948 166.091 27.5605C165.386 28.0576 165.538 29.0931 166.56 30.6948C166.836 31.1229 167.057 31.4957 167.057 31.5233C167.057 31.5509 166.684 31.6199 166.215 31.6613C162.708 32.0618 159.477 34.409 157.53 37.9714C156.922 39.1036 156.853 39.5316 157.24 39.7388C157.433 39.8492 157.654 39.8216 158.11 39.6145C159.532 38.9932 161.161 38.7584 161.879 39.0898C162.432 39.3383 162.984 40.6777 163.743 43.6325C164.517 46.5597 165.166 48.258 166.118 49.8321L166.753 50.8676L166.132 50.9643C164.793 51.1714 164.793 51.6547 166.132 52.635C168.921 54.6923 174.03 57.4262 177.206 58.5723C181.887 60.2568 185.214 60.8367 189.356 60.6986C194.686 60.5191 198.828 58.9313 201.7 56.0041L202.446 55.2308L202.957 55.6589C203.73 56.2664 204.061 56.1697 204.393 55.217C204.683 54.3886 204.793 51.5304 204.572 50.4396L204.462 49.8735L205.056 49.7768C205.801 49.6526 206.271 49.3488 206.271 48.9898C206.271 48.8241 205.332 47.5676 204.02 45.9936C201.065 42.4174 200.389 41.589 198.607 39.2003C197.779 38.0957 196.854 36.9358 196.55 36.6045C196.26 36.2869 196.039 35.9969 196.067 35.9831C197.958 34.699 200.195 32.2689 200.195 31.5233C200.195 31.3023 200.057 31.109 199.795 30.9434C199.394 30.7086 199.394 30.6948 199.657 30.3772C200.016 29.9492 199.988 29.3831 199.574 28.5823C199.284 27.9885 199.215 27.6019 199.077 25.4479C198.939 23.3492 198.953 22.4931 199.146 19.8007C199.602 13.5458 199.588 6.20023 199.091 4.07387C198.787 2.69312 197.53 1.9199 196.191 2.25127C194.479 2.69312 191.717 5.37178 189.605 8.64417L189.066 9.47262L188.666 9.18266C188.335 8.94793 188.003 8.87889 186.774 8.82366C185.38 8.75463 185.283 8.72701 184.883 8.35421C184.524 8.00902 184.413 7.9676 184.137 8.09187C183.806 8.24375 183.488 9.03078 183.488 9.69354V10.0525L182.77 9.84542C181.003 9.32074 181.044 9.36216 180.437 7.53956C179.539 4.79186 178.338 2.51362 177.012 1.05002C176.143 0.0834885 174.928 -0.2617 174.03 0.207756ZM174.582 3.74249C175.01 4.37764 176.736 10.3839 176.529 10.5772C176.502 10.6048 176.253 10.4391 175.963 10.2044C175.342 9.70735 175.342 9.70735 174.9 10.0663C174.361 10.4806 174.071 11.2262 174.113 12.0408C174.127 12.4827 174.058 12.9659 173.92 13.2697C173.643 13.8772 173.63 14.2638 173.878 14.8299L174.058 15.2442L174.127 14.6504C174.223 13.9601 174.389 13.7391 175.093 13.2973C175.563 12.9935 175.618 12.8969 175.618 12.3722V11.7923L176.101 12.3446C176.377 12.6484 176.75 13.1316 176.93 13.4078C177.178 13.7668 177.385 13.9325 177.606 13.9325C178.186 13.9325 178.297 13.6425 178.103 12.5931C178.02 12.0684 177.91 11.5299 177.869 11.3781C177.799 11.1157 177.799 11.1157 178.062 11.3366C178.49 11.7232 178.656 11.6404 178.656 11.0329C178.656 10.7291 178.711 10.4806 178.78 10.4806C178.918 10.4806 179.512 11.3643 179.746 11.9442C179.953 12.4827 180.658 13.173 181.182 13.3663C181.638 13.5458 182.66 13.5597 182.908 13.4078C183.033 13.3249 182.894 13.2283 182.494 13.1178C181.748 12.8831 181.196 12.4965 180.948 12.0132C180.782 11.6956 180.423 10.2044 180.52 10.2044C180.533 10.2044 180.837 10.3287 181.196 10.4944C182.19 10.9362 184.717 11.4609 185.021 11.2952C185.366 11.1157 185.352 10.591 185.007 10.2735C184.427 9.74877 184.703 9.65212 185.601 10.0663C186.07 10.3011 186.678 10.4806 186.94 10.4806C187.589 10.4806 187.769 10.6877 187.769 11.3919C187.769 11.9304 188.169 12.6898 188.459 12.6898C188.528 12.6898 188.846 12.2203 189.177 11.6404L189.771 10.591L189.812 11.1571C189.867 11.8199 190.061 11.8751 190.53 11.3781C190.999 10.881 191.138 10.95 191.041 11.6542C190.93 12.4274 191.124 12.5655 191.648 12.0546C192.049 11.668 192.049 11.6956 191.428 13.035C191.096 13.7944 190.806 14.5538 190.806 14.7195C190.806 14.8852 190.958 15.1337 191.138 15.2718C191.483 15.5341 192.739 17.8814 192.739 18.268C192.739 18.3923 192.794 18.4889 192.85 18.4889C193.015 18.4889 193.25 19.0689 193.195 19.345C193.167 19.4693 193.043 19.6074 192.933 19.6488C192.781 19.704 192.739 19.6488 192.767 19.4141C192.794 19.2484 192.891 19.1241 192.974 19.1379C193.071 19.1655 193.112 19.0827 193.071 18.9722C193.002 18.8203 192.905 18.8756 192.656 19.1655C192.477 19.3864 192.325 19.6212 192.325 19.704C192.325 19.773 192.173 19.8835 191.98 19.9249C191.787 19.9802 191.635 20.0768 191.635 20.1459C191.635 20.2287 191.579 20.2839 191.51 20.2839C191.386 20.2839 189.812 21.209 189.149 21.6647C188.956 21.8028 188.611 21.9546 188.362 21.9961C187.893 22.1065 187.437 22.4931 187.782 22.4931C188.058 22.5069 187.34 22.8936 187.051 22.9074C186.912 22.9074 186.802 22.9626 186.802 23.0316C186.802 23.1007 186.65 23.1973 186.457 23.2387C186.264 23.294 186.112 23.4182 186.112 23.5287C186.112 23.6392 186.056 23.7496 185.974 23.7496C185.421 23.8187 184.593 24.2053 184.593 24.3848C184.593 24.4952 184.399 24.5643 184.04 24.5643C183.737 24.5643 183.502 24.6057 183.516 24.6609C183.571 24.868 182.48 25.8346 182.384 25.6689C182.315 25.5722 182.149 25.6551 181.887 25.9312C181.666 26.1659 181.279 26.4283 181.044 26.5111C180.796 26.594 180.589 26.7459 180.589 26.8425C180.589 27.1187 180.299 27.2567 180.174 27.0496C180.092 26.9254 179.912 27.022 179.539 27.4086C179.235 27.6986 179.015 28.0023 179.042 28.0852C179.07 28.1542 179.042 28.1818 178.987 28.1266C178.849 27.9885 178.78 27.2982 178.918 27.381C178.959 27.4224 179.015 27.3258 179.015 27.1739C179.015 26.9254 178.987 26.9254 178.863 27.1049C178.738 27.2705 178.669 27.2844 178.517 27.1463C178.379 27.0082 178.352 27.022 178.421 27.2153C178.462 27.3396 178.379 27.5467 178.228 27.6848C178.076 27.8228 177.993 28.0162 178.02 28.1128C178.062 28.2095 178.02 28.3199 177.951 28.3751C177.758 28.4856 176.985 27.74 177.095 27.5605C177.137 27.4777 177.123 27.4639 177.04 27.5053C176.957 27.5605 176.529 27.312 176.087 26.953C175.176 26.2488 174.002 25.6689 173.45 25.6689C172.939 25.6689 172.58 26.0417 172.58 26.5664C172.58 27.0496 172.981 27.5053 173.547 27.671C174.306 27.9057 176.446 29.0655 177.979 30.1011C178.876 30.6948 179.65 31.1919 179.691 31.1919C179.829 31.1919 181.555 32.7521 181.555 32.8764C181.555 32.9316 181.458 32.9869 181.348 32.9869C181.044 32.9869 181.099 33.3321 181.458 33.7463C181.679 34.0224 181.914 34.1191 182.287 34.1329C183.143 34.1605 184.096 33.2216 183.322 33.0973C182.867 33.0283 184.496 32.2136 186.968 31.2747C189.163 30.4463 190.585 30.0321 191.897 29.8249C192.38 29.7421 192.891 29.5764 193.043 29.4521C193.361 29.1622 195.446 28.8584 197.171 28.8446C198.304 28.8446 198.387 28.8584 198.607 29.2036C198.828 29.5488 198.828 29.5626 198.207 30.2254C197.862 30.5982 197.572 30.9434 197.572 30.9848C197.572 31.2885 197.917 31.5923 198.331 31.6613C198.746 31.7442 198.801 31.7994 198.69 32.0065C198.456 32.4346 196.743 34.0777 195.874 34.699C193.264 36.5492 188.997 37.9576 185.283 38.1923L183.971 38.2614L183.005 37.1291C181.983 35.9279 181.666 35.4308 182.342 36.0521C182.756 36.4526 183.364 36.5492 183.764 36.3007C183.93 36.204 183.875 36.1626 183.557 36.1626C182.991 36.1626 182.812 36.0107 182.591 35.3894C182.37 34.7266 182.19 34.6576 181.887 35.1132C181.762 35.3065 181.597 35.4722 181.528 35.4722C181.458 35.4722 181.03 35.1547 180.589 34.768C180.147 34.3814 179.332 33.7463 178.78 33.3735C177.579 32.5726 174.817 31.1919 174.403 31.1919C174.044 31.1919 173.823 31.5785 173.823 32.1584C173.823 32.476 173.768 32.5865 173.63 32.5312C172.58 32.1308 171.034 31.7718 169.639 31.6199C168.783 31.5233 168.521 31.4404 168.3 31.1781C167.899 30.7086 166.781 28.817 166.781 28.5961C166.781 28.4994 166.974 28.3475 167.195 28.2647C167.858 28.0438 167.955 27.6986 167.54 27.091C167.099 26.4283 167.099 26.1659 167.596 25.6965C167.927 25.3789 168.12 24.868 168.825 22.4241C169.28 20.8224 169.736 18.986 169.819 18.3094C169.943 17.4396 170.04 17.1082 170.178 17.1082C170.288 17.1082 170.44 16.9425 170.509 16.7492C170.592 16.5559 170.702 16.4454 170.785 16.4869C170.854 16.5283 170.923 16.5145 170.923 16.4592C170.923 15.9484 171.407 12.6345 171.697 11.2124C172.042 9.45881 172.801 6.3245 173.188 5.0542C173.381 4.39144 174.002 3.43872 174.237 3.43872C174.306 3.43872 174.458 3.5768 174.582 3.74249ZM197.379 6.55923C197.586 7.09772 197.599 7.63622 197.53 11.3504C197.448 15.2304 197.296 17.2739 196.882 19.6212C196.785 20.1459 196.674 20.5601 196.619 20.5601C196.578 20.5601 196.302 20.1044 196.012 19.5521C195.735 18.986 195.28 18.2818 195.004 17.9643L194.507 17.3843L194.797 16.7906C195.114 16.1279 195.156 15.7827 194.948 15.2442C194.852 14.9818 194.866 14.7747 195.017 14.4848C195.418 13.6977 195.142 12.1927 194.534 11.8613C194.327 11.7509 194.134 11.7785 193.692 11.9994C193.388 12.1651 193.112 12.2756 193.084 12.2479C193.015 12.1789 194.451 9.22408 195.087 8.11948C196.564 5.62031 196.923 5.37178 197.379 6.55923ZM189.591 26.594C190.088 27.1877 190.033 27.2705 188.5 28.2923C186.526 29.5902 186.319 29.5764 187.106 28.1957C187.741 27.0634 188.459 26.3592 188.97 26.3592C189.191 26.3592 189.481 26.4697 189.591 26.594ZM178.683 27.9471C178.725 28.1404 178.697 28.2923 178.642 28.2923C178.573 28.2923 178.517 28.168 178.517 28.0023C178.517 27.8228 178.462 27.7538 178.352 27.8228C178.255 27.8781 178.241 27.8643 178.297 27.7676C178.462 27.5053 178.614 27.5743 178.683 27.9471ZM178.379 28.4166C178.379 28.4856 178.283 28.5685 178.186 28.6099C178.048 28.6651 178.007 28.6237 178.062 28.4856C178.145 28.2785 178.379 28.2233 178.379 28.4166ZM178.587 29.107C178.504 29.176 178.241 28.9689 178.241 28.8308C178.241 28.7618 178.324 28.7756 178.435 28.8722C178.545 28.9689 178.6 29.0793 178.587 29.107ZM176.792 33.4978C178.531 34.4919 179.594 35.2927 181.017 36.7149C182.632 38.3028 183.861 39.9597 184.593 41.4785C185.021 42.376 185.214 42.6383 185.476 42.6798C185.891 42.7626 186.112 42.5693 186.112 42.1413C186.112 41.7823 186.443 41.0643 186.774 40.6777C186.981 40.4429 187.023 40.5534 187.368 42.1551C188.321 46.5045 189.909 49.9287 191.8 51.7099C192.698 52.5522 193.443 52.9664 194.589 53.2287L195.432 53.422L194.41 53.353C192.629 53.2425 190.986 52.1932 189.729 50.3568C189.149 49.5145 188.031 47.2225 187.699 46.2145C187.561 45.7865 187.396 45.4551 187.34 45.4965C187.271 45.5379 187.258 45.6622 187.299 45.8003C187.368 45.9936 187.354 45.9936 187.244 45.8417C187.147 45.7174 187.147 45.5241 187.23 45.3032C187.313 45.0823 187.313 44.9166 187.23 44.8752C187.161 44.8199 187.078 44.5714 187.037 44.3091C186.981 43.8534 186.981 43.8534 186.968 44.4057C186.954 44.7371 186.885 44.9994 186.802 44.9994C186.733 44.9994 186.484 45.1927 186.25 45.4137C186.015 45.6484 185.766 45.8003 185.684 45.7589C185.615 45.7036 185.559 45.7312 185.559 45.8141C185.559 46.0212 184.883 46.6563 184.662 46.6563C184.551 46.6563 184.51 46.753 184.538 46.8911C184.593 47.0706 184.469 47.1948 184.165 47.3329C183.93 47.4296 183.461 47.7886 183.129 48.1199C182.784 48.4651 182.453 48.6861 182.342 48.6446C182.218 48.6032 182.038 48.7551 181.859 49.0589C181.569 49.5421 181.279 49.7078 181.279 49.404C181.279 49.3074 181.127 49.404 180.934 49.6112C180.754 49.8045 180.533 49.9702 180.464 49.9702C180.381 49.9702 180.285 50.122 180.23 50.3153C180.188 50.5086 180.064 50.6605 179.953 50.6605C179.843 50.6605 179.76 50.7848 179.76 50.9367C179.76 51.13 179.663 51.2128 179.456 51.2128C179.291 51.2128 178.918 51.4614 178.628 51.7651C178.324 52.0689 178.02 52.3174 177.938 52.3174C177.73 52.3174 176.709 53.4358 176.792 53.5739C176.847 53.643 176.778 53.6568 176.653 53.6015C176.502 53.5463 176.474 53.4911 176.584 53.422C176.681 53.353 176.64 53.2287 176.446 52.994C176.184 52.6902 176.17 52.6902 176.294 52.9664C176.391 53.1597 176.405 53.2978 176.308 53.353C176.239 53.3944 176.17 53.3668 176.17 53.2978C176.17 53.2149 176.087 53.1459 175.991 53.1459C175.659 53.1459 172.663 50.6329 171.061 49.0174C170.192 48.1337 169.101 46.9325 168.659 46.3526C168.203 45.7727 167.789 45.317 167.734 45.3446C167.692 45.386 167.734 45.8417 167.844 46.3802C167.955 46.9187 168.01 47.4572 167.969 47.5676C167.83 47.9266 167.223 47.7748 166.615 47.2363C165.594 46.3526 165.732 46.6701 164.765 42.9973C163.895 39.6697 163.274 38.4409 162.266 38.0128C161.741 37.7919 160.153 37.7643 159.477 37.9576C159.215 38.0266 158.98 38.068 158.952 38.0404C158.828 37.9162 160.706 35.776 161.465 35.1547C162.432 34.3814 164.116 33.5254 165.4 33.1664C166.077 32.9869 166.795 32.9178 168.369 32.9316C170.592 32.9316 171.862 33.1249 173.726 33.7601C174.624 34.0639 175.494 34.3124 176.653 34.5747L177.068 34.6714L176.653 34.2296C176.433 33.9948 176.032 33.6772 175.784 33.5116C175.535 33.3597 175.273 33.1111 175.19 32.9593C175.052 32.7107 175.079 32.6969 175.369 32.7798C175.535 32.835 176.184 33.1526 176.792 33.4978ZM196.398 38.358C196.357 38.3856 196.233 38.3028 196.136 38.1509C196.025 38.0128 195.901 37.93 195.846 37.9852C195.722 38.1095 196.302 38.6756 196.467 38.5789C196.536 38.5375 196.633 38.5789 196.688 38.6618C196.757 38.7722 196.73 38.786 196.605 38.717C196.467 38.6342 196.44 38.6618 196.523 38.8689C196.578 39.0208 196.426 38.9241 196.15 38.6342C195.584 38.0404 195.294 37.9162 195.087 38.1785C194.99 38.289 194.824 38.3718 194.728 38.3718C194.562 38.3718 194.465 38.6342 194.52 38.9517C194.52 39.007 194.369 38.9932 194.175 38.9241C193.72 38.7446 193.72 38.7446 193.802 39.0484C193.858 39.2417 193.72 39.366 193.264 39.6007C192.919 39.7526 192.574 39.8906 192.477 39.8906C192.38 39.8906 192.339 39.9459 192.38 40.0149C192.422 40.0701 192.629 40.0978 192.836 40.0563C193.195 39.9873 193.209 40.0011 192.974 40.222C192.836 40.3601 192.643 40.4291 192.532 40.3877C192.394 40.3325 192.325 40.4015 192.325 40.581C192.325 40.7467 192.228 40.8572 192.09 40.8572C191.952 40.8572 191.676 40.94 191.469 41.0505C191.138 41.23 191.11 41.2162 191.179 41.0229C191.234 40.8434 191.22 40.8296 191.11 40.9676C191.041 41.0643 191.013 41.3128 191.055 41.5061C191.096 41.7409 191.069 41.8375 190.972 41.7685C190.889 41.727 190.723 41.7823 190.613 41.9065C190.281 42.2241 190.351 41.9065 190.737 41.2438C190.93 40.9124 191.124 40.5396 191.179 40.4015C191.22 40.2773 191.317 40.153 191.414 40.153C191.497 40.1392 191.635 40.1254 191.704 40.0978C191.787 40.084 191.925 40.0563 192.021 40.0563C192.104 40.0425 192.187 39.9597 192.187 39.8768C192.187 39.7664 192.118 39.7802 191.98 39.8906C191.856 39.9873 191.731 40.0287 191.69 39.9873C191.566 39.863 192.477 39.2555 193.499 38.7722C194.037 38.5237 194.631 38.2061 194.838 38.068C195.031 37.93 195.307 37.8609 195.432 37.9024C195.542 37.9576 195.639 37.9438 195.625 37.8747C195.57 37.5296 195.68 37.5296 196.053 37.8885C196.274 38.1095 196.44 38.3166 196.398 38.358ZM190.502 42.5831C190.461 42.6245 190.378 42.5555 190.337 42.4174C190.254 42.2241 190.268 42.2103 190.406 42.3346C190.502 42.4312 190.544 42.5417 190.502 42.5831ZM187.037 45.4137C186.954 45.6346 186.857 45.8003 186.83 45.7727C186.747 45.6898 186.968 44.9994 187.078 44.9994C187.147 44.9994 187.12 45.1789 187.037 45.4137Z" fill="#0ACF83"/>
</svg>
