<svg width="363" height="48" viewBox="0 0 363 48" fill="none" xmlns="http://www.w3.org/2000/svg">
<path d="M46.1051 11.02C44.5541 11.707 42.8861 12.165 41.1261 12.382C42.9151 11.32 44.2921 9.626 44.9381 7.624C43.2641 8.605 41.4091 9.326 39.4361 9.706C37.8601 8.036 35.6121 7 33.1221 7C28.3391 7 24.4611 10.843 24.4611 15.582C24.4611 16.253 24.5401 16.906 24.6871 17.54C17.4911 17.179 11.1081 13.758 6.83807 8.566C6.08807 9.835 5.66607 11.32 5.66607 12.888C5.66607 15.867 7.19107 18.49 9.51707 20.035C8.09707 19.992 6.76107 19.597 5.59107 18.963C5.59107 18.989 5.59107 19.027 5.59107 19.064C5.59107 23.227 8.57707 26.694 12.5351 27.483C11.8121 27.681 11.0471 27.791 10.2591 27.791C9.70007 27.791 9.15507 27.728 8.62707 27.633C9.72907 31.035 12.9261 33.522 16.7141 33.596C13.7501 35.894 10.0171 37.27 5.95807 37.27C5.25707 37.27 4.57107 37.23 3.89307 37.148C7.73007 39.577 12.2831 41 17.1711 41C33.0981 41 41.8121 27.921 41.8121 16.574C41.8121 16.202 41.8001 15.832 41.7831 15.466C43.4831 14.265 44.9481 12.751 46.1051 11.02Z" fill="url(#paint0_linear_1149_1758)"/>
<path d="M55.0795 16.2727V9.90909H80.3636V16.2727H71.6136V39H63.8295V16.2727H55.0795ZM84.8132 39L79.3587 17.1818H87.1996L89.6996 30.4773H89.87L92.6541 17.1818H100.268L103.165 30.3636H103.336L105.722 17.1818H113.563L108.109 39H99.6428L96.5746 27.2955H96.3473L93.2791 39H84.8132ZM115.95 39V17.1818H123.79V39H115.95ZM119.87 14.9091C118.809 14.9091 117.9 14.5587 117.143 13.858C116.385 13.1572 116.006 12.3144 116.006 11.3295C116.006 10.3447 116.385 9.50189 117.143 8.80114C117.9 8.10038 118.809 7.75 119.87 7.75C120.94 7.75 121.849 8.10038 122.597 8.80114C123.355 9.50189 123.734 10.3447 123.734 11.3295C123.734 12.3144 123.355 13.1572 122.597 13.858C121.849 14.5587 120.94 14.9091 119.87 14.9091ZM140.797 17.1818V22.8636H126.422V17.1818H140.797ZM129.206 11.9545H137.047V31.983C137.047 32.286 137.099 32.5417 137.203 32.75C137.307 32.9489 137.468 33.1004 137.686 33.2045C137.904 33.2992 138.183 33.3466 138.524 33.3466C138.761 33.3466 139.036 33.3182 139.348 33.2614C139.67 33.2045 139.907 33.1572 140.058 33.1193L141.195 38.6307C140.844 38.7348 140.342 38.8627 139.689 39.0142C139.045 39.1657 138.278 39.2652 137.388 39.3125C135.589 39.4072 134.078 39.2225 132.857 38.7585C131.635 38.285 130.716 37.5417 130.101 36.5284C129.485 35.5152 129.187 34.2462 129.206 32.7216V11.9545ZM157.008 17.1818V22.8636H142.633V17.1818H157.008ZM145.417 11.9545H153.258V31.983C153.258 32.286 153.31 32.5417 153.414 32.75C153.518 32.9489 153.679 33.1004 153.897 33.2045C154.115 33.2992 154.394 33.3466 154.735 33.3466C154.972 33.3466 155.246 33.3182 155.559 33.2614C155.881 33.2045 156.118 33.1572 156.269 33.1193L157.406 38.6307C157.055 38.7348 156.553 38.8627 155.9 39.0142C155.256 39.1657 154.489 39.2652 153.599 39.3125C151.799 39.4072 150.289 39.2225 149.067 38.7585C147.846 38.285 146.927 37.5417 146.312 36.5284C145.696 35.5152 145.398 34.2462 145.417 32.7216V11.9545ZM170.428 39.3977C168.098 39.3977 166.09 38.9527 164.405 38.0625C162.729 37.1629 161.436 35.875 160.527 34.1989C159.627 32.5133 159.178 30.4962 159.178 28.1477C159.178 25.8939 159.632 23.9242 160.541 22.2386C161.45 20.553 162.733 19.2415 164.391 18.304C166.048 17.3665 168.003 16.8977 170.257 16.8977C171.905 16.8977 173.396 17.1534 174.732 17.6648C176.067 18.1761 177.208 18.9195 178.155 19.8949C179.102 20.8608 179.831 22.035 180.342 23.4176C180.854 24.8002 181.109 26.358 181.109 28.0909V29.9091H161.621V25.5909H173.893C173.884 24.9659 173.723 24.4167 173.411 23.9432C173.107 23.4602 172.696 23.0862 172.175 22.821C171.663 22.5464 171.081 22.4091 170.428 22.4091C169.793 22.4091 169.211 22.5464 168.68 22.821C168.15 23.0862 167.724 23.4555 167.402 23.929C167.089 24.4025 166.924 24.9564 166.905 25.5909V30.25C166.905 30.9508 167.052 31.5758 167.345 32.125C167.639 32.6742 168.06 33.1051 168.609 33.4176C169.159 33.7301 169.821 33.8864 170.598 33.8864C171.138 33.8864 171.63 33.8106 172.075 33.6591C172.53 33.5076 172.918 33.2898 173.24 33.0057C173.562 32.7121 173.799 32.3617 173.95 31.9545H181.109C180.863 33.4697 180.281 34.786 179.362 35.9034C178.444 37.0114 177.227 37.8731 175.712 38.4886C174.206 39.0947 172.445 39.3977 170.428 39.3977ZM184.309 39V17.1818H191.923V21.3295H192.15C192.548 19.7955 193.177 18.6733 194.039 17.9631C194.91 17.2528 195.928 16.8977 197.093 16.8977C197.434 16.8977 197.77 16.9261 198.102 16.983C198.442 17.0303 198.769 17.1013 199.082 17.196V23.8864C198.693 23.7538 198.215 23.6544 197.647 23.5881C197.079 23.5218 196.591 23.4886 196.184 23.4886C195.417 23.4886 194.726 23.6638 194.11 24.0142C193.504 24.3551 193.026 24.8381 192.675 25.4631C192.325 26.0786 192.15 26.803 192.15 27.6364V39H184.309Z" fill="#138DE5"/>
<path d="M208.712 16.2727V9.90909H233.996V16.2727H225.246V39H217.462V16.2727H208.712ZM234.817 39V17.1818H242.43V21.3295H242.658C243.055 19.7955 243.685 18.6733 244.547 17.9631C245.418 17.2528 246.436 16.8977 247.601 16.8977C247.942 16.8977 248.278 16.9261 248.609 16.983C248.95 17.0303 249.277 17.1013 249.589 17.196V23.8864C249.201 23.7538 248.723 23.6544 248.155 23.5881C247.587 23.5218 247.099 23.4886 246.692 23.4886C245.925 23.4886 245.233 23.6638 244.618 24.0142C244.012 24.3551 243.534 24.8381 243.183 25.4631C242.833 26.0786 242.658 26.803 242.658 27.6364V39H234.817ZM257.224 39.3409C255.832 39.3409 254.601 39.1136 253.531 38.6591C252.471 38.1951 251.637 37.4943 251.031 36.5568C250.425 35.6193 250.122 34.4261 250.122 32.9773C250.122 31.7841 250.326 30.7661 250.733 29.9233C251.14 29.071 251.708 28.375 252.438 27.8352C253.167 27.2955 254.014 26.8835 254.98 26.5994C255.955 26.3153 257.007 26.1307 258.134 26.0455C259.355 25.9508 260.335 25.8371 261.074 25.7045C261.822 25.5625 262.362 25.3684 262.693 25.1222C263.025 24.8665 263.19 24.5303 263.19 24.1136V24.0568C263.19 23.4886 262.973 23.053 262.537 22.75C262.101 22.447 261.543 22.2955 260.861 22.2955C260.113 22.2955 259.502 22.4612 259.028 22.7926C258.564 23.1146 258.285 23.6117 258.19 24.2841H250.974C251.069 22.9583 251.491 21.7367 252.239 20.6193C252.996 19.4924 254.099 18.5928 255.548 17.9205C256.997 17.2386 258.806 16.8977 260.974 16.8977C262.537 16.8977 263.938 17.0824 265.179 17.4517C266.42 17.8116 267.475 18.3182 268.347 18.9716C269.218 19.6155 269.881 20.3731 270.335 21.2443C270.799 22.1061 271.031 23.0436 271.031 24.0568V39H263.702V35.9318H263.531C263.096 36.7462 262.565 37.4044 261.94 37.9062C261.325 38.4081 260.619 38.7727 259.824 39C259.038 39.2273 258.171 39.3409 257.224 39.3409ZM259.781 34.3977C260.378 34.3977 260.937 34.2746 261.457 34.0284C261.988 33.7822 262.419 33.4271 262.75 32.9631C263.081 32.4991 263.247 31.9356 263.247 31.2727V29.4545C263.039 29.5398 262.816 29.6203 262.58 29.696C262.352 29.7718 262.106 29.8428 261.841 29.9091C261.585 29.9754 261.311 30.0369 261.017 30.0938C260.733 30.1506 260.435 30.2027 260.122 30.25C259.516 30.3447 259.019 30.5009 258.631 30.7188C258.252 30.9271 257.968 31.1875 257.778 31.5C257.598 31.803 257.509 32.1439 257.509 32.5227C257.509 33.1288 257.722 33.5928 258.148 33.9148C258.574 34.2367 259.118 34.3977 259.781 34.3977ZM285.289 39.3977C282.922 39.3977 280.895 38.929 279.21 37.9915C277.524 37.0445 276.231 35.7282 275.332 34.0426C274.432 32.3475 273.982 30.3826 273.982 28.1477C273.982 25.9129 274.432 23.9527 275.332 22.267C276.231 20.572 277.524 19.2557 279.21 18.3182C280.895 17.3712 282.922 16.8977 285.289 16.8977C287.429 16.8977 289.281 17.286 290.843 18.0625C292.415 18.8295 293.632 19.9186 294.494 21.3295C295.355 22.7311 295.791 24.3788 295.8 26.2727H288.528C288.424 25.1269 288.092 24.2557 287.533 23.6591C286.984 23.053 286.274 22.75 285.403 22.75C284.721 22.75 284.124 22.9489 283.613 23.3466C283.102 23.7348 282.704 24.3267 282.42 25.1222C282.136 25.9081 281.994 26.8977 281.994 28.0909C281.994 29.2841 282.136 30.2784 282.42 31.0739C282.704 31.8598 283.102 32.4517 283.613 32.8494C284.124 33.2377 284.721 33.4318 285.403 33.4318C285.98 33.4318 286.492 33.2992 286.937 33.0341C287.382 32.7595 287.742 32.3617 288.016 31.8409C288.3 31.3106 288.471 30.6667 288.528 29.9091H295.8C295.772 31.8314 295.332 33.5076 294.479 34.9375C293.627 36.358 292.42 37.4564 290.857 38.233C289.304 39.0095 287.448 39.3977 285.289 39.3977ZM306.081 33.8295L306.138 24.5114H307.161L312.445 17.1818H321.251L312.388 28.6023H310.172L306.081 33.8295ZM299.036 39V9.90909H306.876V39H299.036ZM312.501 39L307.501 30.3636L312.615 24.7955L321.479 39H312.501ZM332.849 39.3977C330.52 39.3977 328.512 38.9527 326.827 38.0625C325.151 37.1629 323.858 35.875 322.949 34.1989C322.049 32.5133 321.599 30.4962 321.599 28.1477C321.599 25.8939 322.054 23.9242 322.963 22.2386C323.872 20.553 325.155 19.2415 326.812 18.304C328.47 17.3665 330.425 16.8977 332.679 16.8977C334.327 16.8977 335.818 17.1534 337.153 17.6648C338.489 18.1761 339.63 18.9195 340.577 19.8949C341.524 20.8608 342.253 22.035 342.764 23.4176C343.276 24.8002 343.531 26.358 343.531 28.0909V29.9091H324.043V25.5909H336.315C336.306 24.9659 336.145 24.4167 335.832 23.9432C335.529 23.4602 335.117 23.0862 334.597 22.821C334.085 22.5464 333.503 22.4091 332.849 22.4091C332.215 22.4091 331.633 22.5464 331.102 22.821C330.572 23.0862 330.146 23.4555 329.824 23.929C329.511 24.4025 329.346 24.9564 329.327 25.5909V30.25C329.327 30.9508 329.473 31.5758 329.767 32.125C330.061 32.6742 330.482 33.1051 331.031 33.4176C331.58 33.7301 332.243 33.8864 333.02 33.8864C333.56 33.8864 334.052 33.8106 334.497 33.6591C334.952 33.5076 335.34 33.2898 335.662 33.0057C335.984 32.7121 336.221 32.3617 336.372 31.9545H343.531C343.285 33.4697 342.703 34.786 341.784 35.9034C340.866 37.0114 339.649 37.8731 338.134 38.4886C336.628 39.0947 334.866 39.3977 332.849 39.3977ZM346.731 39V17.1818H354.344V21.3295H354.572C354.969 19.7955 355.599 18.6733 356.461 17.9631C357.332 17.2528 358.35 16.8977 359.515 16.8977C359.856 16.8977 360.192 16.9261 360.523 16.983C360.864 17.0303 361.191 17.1013 361.504 17.196V23.8864C361.115 23.7538 360.637 23.6544 360.069 23.5881C359.501 23.5218 359.013 23.4886 358.606 23.4886C357.839 23.4886 357.147 23.6638 356.532 24.0142C355.926 24.3551 355.448 24.8381 355.097 25.4631C354.747 26.0786 354.572 26.803 354.572 27.6364V39H346.731Z" fill="black"/>
<defs>
<linearGradient id="paint0_linear_1149_1758" x1="10.3411" y1="8.312" x2="40.7981" y2="38.769" gradientUnits="userSpaceOnUse">
<stop stop-color="#2AA4F4"/>
<stop offset="1" stop-color="#007AD9"/>
</linearGradient>
</defs>
</svg>
